<svg width="1268" height="180" viewBox="0 0 1268 180" fill="none" xmlns="http://www.w3.org/2000/svg">
<path d="M0 3.28018C0 1.46859 3.59022 0 8.01897 0H1259.98C1264.41 0 1268 1.46859 1268 3.28018V176.72C1268 178.531 1264.41 180 1259.98 180H8.01897C3.59022 180 0 178.531 0 176.72V3.28018Z" fill="#FFFDF9"/>
<path d="M8.01897 0.5H1259.98C1262.15 0.5 1264.08 0.860035 1265.46 1.42352C1266.15 1.70577 1266.68 2.02922 1267.02 2.3628C1267.37 2.69496 1267.5 3.00486 1267.5 3.28018V176.72C1267.5 176.995 1267.37 177.305 1267.02 177.637C1266.68 177.971 1266.15 178.294 1265.46 178.576C1264.08 179.14 1262.15 179.5 1259.98 179.5H8.01897C5.85311 179.5 3.91555 179.14 2.538 178.576C1.84801 178.294 1.32269 177.971 0.977764 177.637C0.634307 177.305 0.5 176.995 0.5 176.72V3.28018C0.5 3.00486 0.634307 2.69496 0.977764 2.3628C1.32269 2.02922 1.84801 1.70577 2.538 1.42352C3.91555 0.860034 5.85311 0.5 8.01897 0.5Z" stroke="#E39600" stroke-opacity="0.51"/>
</svg>
